<svg width="684" height="105" version="1.1" viewBox="0 0 684 105" xmlns="http://www.w3.org/2000/svg">
  <g fill="#36ab9c">
    <path d="m164.27 68.841c9.7454 0 17.558-7.8117 17.558-17.557 0-9.7437-7.8121-17.557-17.558-17.557s-17.558 7.8138-17.558 17.557c0 9.7456 7.8121 17.557 17.558 17.557zm28.984-17.557c0 15.962-13.021 28.983-28.984 28.983-15.961 0-28.981-13.021-28.981-28.983 0-15.961 13.02-28.982 28.981-28.982 15.962 0 28.984 13.021 28.984 28.982"/>
    <path d="m301.64 64.641c0 1.2606-0.33541 2.1845-1.2599 3.5286-0.84038 1.2606-8.5684 12.097-23.523 12.097-15.961 0-28.982-13.021-28.982-28.983 0-15.961 13.021-28.982 28.982-28.982 12.937 0 21.842 8.3157 25.371 15.036l-10.333 4.8731c-3.3603-5.5439-8.905-8.485-15.038-8.485-9.5758 0-17.558 7.6446-17.558 17.557 0 9.4929 7.5609 17.557 17.558 17.557 8.7379 0 13.525-6.215 13.862-6.7185 1.8478-2.6885 3.6115-3.1939 5.2093-3.1939 3.1078 0 5.7118 2.6047 5.7118 5.7127"/>
    <path d="m229.64 40.616c0-4.0339-3.1078-7.3099-7.3084-7.3099h-11.844v14.534h11.844c4.0323 0 7.3084-3.1934 7.3084-7.2245zm8.655 30.999c0.84037 0.84014 1.5953 2.0987 1.5953 3.8632 0 3.1085-2.6053 5.6293-5.7118 5.6293-1.7649 0-3.1944-0.75671-4.2019-1.764l-19.489-19.742v20.665h-11.425v-57.965h23.606c8.0659 0 18.398 6.5517 18.398 18.314 0 9.9969-7.4767 17.977-15.373 17.977l12.602 13.021"/>
    <path d="m320.39 68.841h6.3864c9.6599 0 17.557-7.7283 17.557-17.557 0-9.829-7.9817-17.557-17.557-17.557h-6.3864zm35.367-17.557c0 15.962-13.02 28.983-28.981 28.983h-17.727v-57.965h17.727c16.046 0 28.981 13.021 28.981 28.982"/>
  </g>
  <g fill="#231f20">
    <path d="m379.17 46.137c6.5911 0 9.4979-5.5282 9.4979-11.128 0-5.4932-2.8-11.128-9.5343-11.128-6.3788 0-9.4979 5.245-9.4979 11.128 0 5.5645 2.8704 11.128 9.5343 11.128zm11.907-11.128c0 6.8402-3.8979 13.184-11.907 13.184-7.9038 0-11.944-6.1311-11.944-13.184 0-6.982 4.0047-13.184 11.944-13.184 7.8674 0 11.907 6.167 11.907 13.184"/>
    <path d="m395.61 47.661v-16.409h-3.1178v-1.8778h3.1178v-1.7724c0-3.4731 1.1343-5.2454 4.467-5.2454 0.92077 0 1.3818 0.0711 1.8415 0.14169v1.9143c-0.56653-0.10652-1.1331-0.17712-1.6292-0.17712-2.0199 0-2.4458 1.0274-2.4458 3.0476v2.0914h3.6152v1.8778h-3.6152v16.409h-2.2335"/>
    <path d="m414.39 29.374v18.287h-2.2335v-18.287zm0-7.0178v3.5796h-2.2335v-3.5796zm-10.243 25.305v-16.409h-3.1191v-1.8778h3.1191v-1.7724c0-3.4731 1.1343-5.2454 4.4657-5.2454 0.92077 0 1.3818 0.0711 1.8428 0.14169v1.9143c-0.56654-0.10652-1.1343-0.17712-1.6305-0.17712-2.0199 0-2.4445 1.0274-2.4445 3.0476v2.0914h3.614v1.8778h-3.614v16.409h-2.2335"/>
    <path d="m433.81 35.115h-2.2322c-0.63813-2.9064-2.4106-4.3947-5.1742-4.3947-4.2534 0-6.4153 3.934-6.4153 7.7967 0 3.9343 2.2335 7.7971 6.4153 7.7971 2.6229 0 4.997-2.055 5.3161-5.2096h2.2322c-0.60297 4.4657-3.4733 7.0884-7.5483 7.0884-5.4932 0-8.6475-4.3593-8.6475-9.6759 0-5.5282 3.3314-9.675 8.6475-9.675 4.3237 0 6.9114 2.4098 7.4064 6.2731"/>
    <path d="m450.21 37.241c-0.10677-3.4374-2.2674-6.5209-5.8475-6.5209-3.1907 0-5.4932 2.5522-5.9894 6.5209zm2.2335 1.3469v0.53199h-14.07c0.0352 3.5796 1.9496 7.194 6.0246 7.194 2.9771 0 4.9619-1.5947 5.742-4.6777h2.2322c-1.0276 4.4658-3.6504 6.5566-7.9742 6.5566-5.4932 0-8.2568-4.0756-8.2568-9.6759 0-4.9972 2.5864-9.675 8.2568-9.675 5.139 0 8.0458 4.0758 8.0458 9.7461"/>
    <path d="m473.03 46.314c4.2182 0 6.4153-3.8985 6.4153-7.7971 0-3.8274-2.1267-7.7967-6.4504-7.7967-4.1102 0-6.3788 3.7921-6.3788 7.7967 0 4.0056 2.2686 7.7971 6.414 7.7971zm8.6487-7.7971c0 5.3514-3.1555 9.6759-8.6487 9.6759-5.4932 0-8.6475-4.3593-8.6475-9.6759 0-5.3161 3.1542-9.675 8.6475-9.675 5.5648 0 8.6487 4.4305 8.6487 9.675"/>
    <path d="m486.21 47.661v-16.409h-3.1178v-1.8778h3.1178v-1.7724c0-3.4731 1.1343-5.2454 4.4669-5.2454 0.92078 0 1.3818 0.0711 1.8415 0.14169v1.9143c-0.56653-0.10652-1.1331-0.17712-1.6292-0.17712-2.0199 0-2.4458 1.0274-2.4458 3.0476v2.0914h3.6153v1.8778h-3.6153v16.409h-2.2335"/>
    <path d="m515.91 34.371c2.8352 0 5.4229-1.8078 5.4229-4.9266 0-3.2601-1.986-5.032-5.4229-5.032h-9.0382v9.9585zm0.0703-12.015c4.5373 0 7.7619 2.2326 7.7619 6.5924 0 3.3672-1.8076 5.8123-4.9254 6.4502v0.0706c3.9682 0.532 4.3589 3.6856 4.4644 6.3442 0.0716 1.736 0.17712 4.7495 1.1343 5.8476h-2.658c-0.53137-0.81501-0.60297-2.9417-0.70849-4.6424-0.14194-2.4809-0.53135-4.0758-1.383-5.1744-0.77883-0.99263-1.9483-1.4181-3.2949-1.4181h-9.4992v11.235h-2.4093v-25.305h11.518"/>
    <path d="m540.82 37.241c-0.10678-3.4374-2.2686-6.5209-5.8487-6.5209-3.1894 0-5.4932 2.5522-5.9894 6.5209zm2.2322 1.3469v0.53199h-14.07c0.0364 3.5796 1.9496 7.194 6.0258 7.194 2.9759 0 4.9606-1.5947 5.7407-4.6777h2.2322c-1.0263 4.4658-3.6492 6.5566-7.9729 6.5566-5.4932 0-8.2581-4.0756-8.2581-9.6759 0-4.9972 2.5877-9.675 8.2581-9.675 5.139 0 8.0445 4.0758 8.0445 9.7461"/>
    <path d="m559.24 34.726h-2.2335c-0.0703-2.5167-1.9496-4.005-4.7848-4.005-2.0551 0-4.3237 0.81563-4.3237 3.1542 0 1.5594 1.3818 2.5515 4.1114 3.1546l2.339 0.53098c1.9848 0.42585 5.5297 1.3469 5.5297 5.1395 0 3.9691-3.9343 5.4932-7.3373 5.4932-4.5008 0-7.1237-2.1266-7.5132-6.4501h2.2322c0.17711 2.9058 2.2686 4.5712 5.3877 4.5712 2.339 0 4.997-1.0628 4.997-3.4373 0-1.8784-1.3818-2.7999-4.3237-3.4378l-2.3742-0.53199c-3.5801-0.81501-5.2809-2.1968-5.2809-4.9265 0-3.7214 3.6504-5.1386 6.875-5.1386 3.9343 0 6.556 2.162 6.6992 5.8834"/>
    <path d="m576.25 37.241c-0.10678-3.4374-2.2686-6.5209-5.8487-6.5209-3.1894 0-5.4932 2.5522-5.9894 6.5209zm2.2322 1.3469v0.53199h-14.07c0.0364 3.5796 1.9496 7.194 6.0258 7.194 2.9759 0 4.9619-1.5947 5.7407-4.6777h2.2322c-1.0263 4.4658-3.6492 6.5566-7.9729 6.5566-5.4932 0-8.2581-4.0756-8.2581-9.6759 0-4.9972 2.5877-9.675 8.2581-9.675 5.139 0 8.0445 4.0758 8.0445 9.7461"/>
    <path d="m593.11 37.667c-0.2839 0.49607-1.0992 0.7086-2.3038 0.88572-1.0992 0.17712-3.3678 0.46027-4.4657 0.74441-1.8076 0.46076-3.6153 1.2047-3.6153 3.4025 0 2.1973 1.9132 3.6144 4.0763 3.6144 3.6153 0 6.3788-2.3386 6.3788-5.7053v-2.9417zm2.3038-2.9417v9.7108c0 0.85029 0.38941 1.347 1.3102 1.347 0.31907 0 0.53262-0.0712 0.70848-0.14233v1.8789c-0.53011 0.10602-0.8856 0.14132-1.417 0.14132-1.9496 0-2.6581-0.85094-2.6581-3.083v-0.10652h-0.0703c-1.8441 2.8353-3.6856 3.7214-6.664 3.7214-3.614 0-6.1301-1.843-6.1301-5.3514 0-2.3038 1.0276-3.3667 1.8076-3.9344 1.2047-0.85031 2.6932-1.3818 7.0873-1.8431 2.6229-0.28301 3.7924-0.38954 3.7924-2.5868 0-2.7646-1.7712-3.7568-4.7848-3.7568-3.0123 0-4.7835 1.4535-4.8903 4.2529h-2.2335c0.24873-4.0404 2.8704-6.1312 7.4428-6.1312 4.8199 0 6.6992 2.268 6.6992 5.8834"/>
    <path d="m608.92 31.359h-0.3555c-3.8979 0-6.4492 2.8705-6.4492 6.5919v9.7108h-2.2335v-18.287h2.0564v4.2877h0.0703c1.0992-2.9059 3.5085-4.5365 6.4504-4.5365h0.46101v2.2332"/>
    <path d="m625.54 35.115h-2.2335c-0.63814-2.9064-2.4093-4.3947-5.1742-4.3947-4.2534 0-6.414 3.934-6.414 7.7967 0 3.9343 2.2322 7.7971 6.414 7.7971 2.6229 0 4.997-2.055 5.3161-5.2096h2.2335c-0.60296 4.4657-3.4733 7.0884-7.5496 7.0884-5.4932 0-8.6475-4.3593-8.6475-9.6759 0-5.5282 3.3314-9.675 8.6475-9.675 4.3237 0 6.9114 2.4098 7.4076 6.2731"/>
    <path d="m630.99 22.356v10.171h0.0716c0.85043-2.1968 3.2246-3.6856 5.8839-3.6856 4.678 0 6.6615 2.268 6.6615 6.9816v11.838h-2.2322v-11.483c0-3.6508-1.5237-5.4581-4.6428-5.4581-4.075 0-5.742 3.3672-5.742 6.4502v10.491h-2.2322v-25.305h2.2322"/>
    <path d="m389.48 62.584h-2.4093c-0.85042-3.8632-4.0398-6.1318-7.7619-6.1318-6.6276 0-9.5331 5.4939-9.5331 11.128 0 5.4231 2.7648 11.128 9.5331 11.128 4.3953 0 7.6199-3.2954 8.1161-8.1156h2.4106c-0.6733 6.3791-4.7496 10.172-10.527 10.172-7.8674 0-11.942-6.0963-11.942-13.184 0-6.875 3.8979-13.184 11.942-13.184 4.9619 0 9.5343 3.0482 10.171 8.1872"/>
    <path d="m400.82 78.886c4.2182 0 6.4153-3.8985 6.4153-7.797 0-3.8274-2.1267-7.7967-6.4504-7.7967-4.1102 0-6.3788 3.7921-6.3788 7.7967 0 4.0054 2.2686 7.797 6.414 7.797zm8.6487-7.797c0 5.3514-3.1555 9.6759-8.6487 9.6759-5.4932 0-8.6462-4.3593-8.6462-9.6759 0-5.3162 3.153-9.675 8.6462-9.675 5.5648 0 8.6487 4.4305 8.6487 9.675"/>
    <path d="m426.19 64.994c1.0627-2.3396 3.2962-3.5796 5.8475-3.5796 4.0398 0 6.0246 2.1973 6.0246 6.3437v12.475h-2.2322v-12.334c0-3.2248-1.3466-4.6071-4.3237-4.6071-3.4381 0-4.9619 2.5522-4.9619 6.6278v10.313h-2.2322v-12.369c0-2.9417-1.2763-4.5718-3.8288-4.5718-3.756 0-5.4581 2.7994-5.4581 6.7338v10.207h-2.2322v-18.287h2.0551v3.083h0.10678c1.2763-2.4451 3.261-3.615 5.9894-3.615 2.4809 0 4.6076 1.24 5.2458 3.5796"/>
    <path d="m444.54 71.089c0 3.8985 1.7725 7.797 6.4153 7.797 4.217 0 5.9894-3.9692 5.9894-7.797 0-3.7563-1.7008-7.7967-6.0246-7.7967-4.1479 0-6.3801 2.6222-6.3801 7.7967zm-2.2322 15.913v-25.056h2.0551v3.4726h0.0716c1.0627-2.5875 3.614-4.0046 6.5208-4.0046 5.5284 0 8.2216 4.4305 8.2216 9.675 0 5.6356-3.0123 9.6759-8.1865 9.6759-2.9068 0-5.4932-1.4887-6.3788-4.0056h-0.0716v10.243h-2.2322"/>
    <path d="m464.84 61.946v11.447c0 3.1899 0.88561 5.4932 4.8551 5.4932 3.8276 0 5.5284-3.5438 5.5284-7.3712v-9.5689h2.2335v18.287h-2.0564v-3.2961h-0.0703c-1.1695 2.4098-3.5085 3.8279-6.3085 3.8279-4.6076 0-6.4153-2.6228-6.4153-6.9462v-11.873h2.2335"/>
    <path d="m485.22 56.452v5.4939h3.7208v1.8779h-3.7208v12.475c0 1.5948 0.46101 2.268 2.0551 2.268 0.39067 0 1.0288-0.0353 1.6657-0.10602v1.9138c-0.85043 0.0358-1.275 0.0711-1.9848 0.0711-2.942 0-3.9682-0.99212-3.9682-3.9697v-12.652h-3.1907v-1.8779h3.1907v-5.4939h2.2322"/>
    <path d="m494.43 61.946v18.287h-2.2322v-18.287zm0-7.018v3.5796h-2.2322v-3.5796h2.2322"/>
    <path d="m513.53 68.361v11.873h-2.2322v-11.447c0-3.5796-1.4182-5.4939-4.6428-5.4939-3.9343 0-5.742 3.19-5.742 6.4507v10.49h-2.2322v-18.287h2.2322v3.1536h0.0716c0.85043-2.1968 3.2246-3.6856 5.8826-3.6856 4.678 0 6.6627 2.268 6.6627 6.9462"/>
    <path d="m525.08 78.143c3.6504 0 5.8826-3.2959 5.8826-7.2652 0-3.7214-1.7009-7.5846-5.9178-7.5846-3.7924 0-5.9894 3.2253-5.9894 7.5846 0 3.7209 1.9132 7.2652 6.0246 7.2652zm5.8123-13.043h0.0703v-3.1536h2.2335v16.869c0 5.7769-2.5513 8.7186-8.081 8.7186-4.075 0-7.3712-1.9496-7.6199-5.5292h2.2335c0.38941 2.3038 2.3742 3.6513 5.3513 3.6513 4.1818 0 5.8826-2.4814 5.8826-6.8407v-2.5522h-0.0703c-1.0627 2.3749-3.2962 3.7567-5.8123 3.7567-5.4932 0-8.2568-3.7209-8.2568-9.3913 0-5.2808 3.1894-9.2148 8.2568-9.2148 2.5877 0 4.8903 1.5594 5.8123 3.6856"/>
    <path d="m558.92 70.239c-0.2839 0.49607-1.0992 0.70862-2.3038 0.88574-1.0991 0.17712-3.3665 0.46075-4.4657 0.7444-1.8076 0.46076-3.6152 1.2047-3.6152 3.4025 0 2.1973 1.9144 3.6144 4.0763 3.6144 3.6153 0 6.3788-2.3386 6.3788-5.7053v-2.9417zm2.3038-2.9417v9.7108c0 0.85031 0.38942 1.3469 1.3114 1.3469 0.31907 0 0.53136-0.0711 0.70848-0.14219v1.8788c-0.53136 0.10589-0.8856 0.14131-1.4182 0.14131-1.9483 0-2.6568-0.85092-2.6568-3.083v-0.10652h-0.0716c-1.8428 2.8352-3.6856 3.7214-6.6627 3.7214-3.6153 0-6.1314-1.843-6.1314-5.3514 0-2.3038 1.0275-3.3667 1.8076-3.9344 1.2047-0.8503 2.6932-1.3818 7.0873-1.8431 2.6229-0.28351 3.7924-0.38953 3.7924-2.5868 0-2.7646-1.7712-3.7568-4.7848-3.7568-3.0123 0-4.7835 1.4535-4.8903 4.2529h-2.2335c0.24872-4.0404 2.8716-6.1312 7.4428-6.1312 4.8212 0 6.6992 2.268 6.6992 5.8834"/>
    <path d="m580.5 68.361v11.873h-2.2335v-11.447c0-3.5796-1.417-5.4939-4.6428-5.4939-3.9331 0-5.7407 3.19-5.7407 6.4507v10.49h-2.2335v-18.287h2.2335v3.1536h0.0704c0.85042-2.1968 3.2258-3.6856 5.8839-3.6856 4.678 0 6.6627 2.268 6.6627 6.9462"/>
    <path d="m592.16 78.886c4.4305 0 6.4153-3.6144 6.4153-7.797 0-4.0045-1.8428-7.7967-6.4153-7.7967-4.217 0-5.9894 3.934-5.9894 7.7967 0 3.9696 1.8441 7.797 5.9894 7.797zm8.6487-23.958v25.305h-2.0564v-3.4737h-0.0704c-1.0288 2.5169-3.9343 4.0056-6.522 4.0056-5.4229 0-8.2216-4.2528-8.2216-9.6759 0-5.2445 2.6932-9.675 8.2216-9.675 2.7648 0 5.4581 1.453 6.3449 4.0046h0.0703v-10.491h2.2335"/>
    <path d="m622.84 78.178c6.9818 0 10.454-2.6939 10.454-10.597 0-7.726-3.2246-10.596-10.525-10.596h-5.0322v21.193zm0.81526-23.249c7.478 0 12.049 3.6856 12.049 12.653 0 8.329-3.9343 12.653-12.086 12.653h-8.2932v-25.305h8.3297"/>
    <path d="m650.8 70.239c-0.28263 0.49607-1.0979 0.70862-2.3038 0.88574-1.0979 0.17712-3.3665 0.46075-4.4644 0.7444-1.8076 0.46076-3.6153 1.2047-3.6153 3.4025 0 2.1973 1.9132 3.6144 4.075 3.6144 3.6153 0 6.3801-2.3386 6.3801-5.7053v-2.9417zm2.3038-2.9417v9.7108c0 0.85031 0.39067 1.3469 1.3114 1.3469 0.31906 0 0.5326-0.0711 0.70847-0.14219v1.8788c-0.53136 0.10589-0.8856 0.14131-1.417 0.14131-1.9496 0-2.6581-0.85092-2.6581-3.083v-0.10652h-0.0703c-1.8441 2.8352-3.6869 3.7214-6.664 3.7214-3.6152 0-6.1314-1.843-6.1314-5.3514 0-2.3038 1.0288-3.3667 1.8076-3.9344 1.2047-0.8503 2.6945-1.3818 7.0886-1.8431 2.6229-0.28351 3.7924-0.38953 3.7924-2.5868 0-2.7646-1.7725-3.7568-4.7848-3.7568-3.0123 0-4.7848 1.4535-4.8915 4.2529h-2.2322c0.24872-4.0404 2.8703-6.1312 7.4428-6.1312 4.8199 0 6.6979 2.268 6.6979 5.8834"/>
    <path d="m661.11 56.452v5.4939h3.722v1.8779h-3.722v12.475c0 1.5948 0.46102 2.268 2.0564 2.268 0.38941 0 1.0275-0.0353 1.6657-0.10602v1.9138c-0.85042 0.0358-1.2763 0.0711-1.9848 0.0711-2.942 0-3.9695-0.99212-3.9695-3.9697v-12.652h-3.1894v-1.8779h3.1894v-5.4939h2.2322"/>
    <path d="m679.68 70.239c-0.28264 0.49607-1.0979 0.70862-2.3038 0.88574-1.0979 0.17712-3.3665 0.46075-4.4644 0.7444-1.8076 0.46076-3.6153 1.2047-3.6153 3.4025 0 2.1973 1.9132 3.6144 4.075 3.6144 3.6153 0 6.3801-2.3386 6.3801-5.7053v-2.9417zm2.3038-2.9417v9.7108c0 0.85031 0.38941 1.3469 1.3114 1.3469 0.31907 0 0.53137-0.0711 0.70849-0.14219v1.8788c-0.53137 0.10589-0.88561 0.14131-1.417 0.14131-1.9496 0-2.6581-0.85092-2.6581-3.083v-0.10652h-0.0716c-1.8428 2.8352-3.6856 3.7214-6.6627 3.7214-3.6152 0-6.1314-1.843-6.1314-5.3514 0-2.3038 1.0288-3.3667 1.8076-3.9344 1.2047-0.8503 2.6932-1.3818 7.0886-1.8431 2.6229-0.28351 3.7924-0.38953 3.7924-2.5868 0-2.7646-1.7725-3.7568-4.7848-3.7568-3.0123 0-4.7848 1.4535-4.8915 4.2529h-2.2322c0.24871-4.0404 2.8703-6.1312 7.4428-6.1312 4.8199 0 6.6979 2.268 6.6979 5.8834"/>
  </g>
  <g>
    <g fill="#231f20">
      <path d="m111.16 51.83c-6.262-24.224-17.031-40.02-32.008-46.951-19.43-8.99-39.321 0.43175-39.519 0.52897l-0.43715-0.90444c0.20225-0.0971 20.522-9.7205 40.378-0.53576 15.262 7.0629 26.218 23.082 32.559 47.61l-0.97228 0.25173"/>
      <path d="m84.157 88.374c-0.78385 0-1.579-0.0131-2.3892-0.0417l0.049-1.4058c13.678 0.48727 23.601-3.1846 29.462-10.89 11.664-15.33 3.5185-41.8 3.4344-42.066l1.3416-0.42194c0.0214 0.0682 2.1493 6.906 2.7636 15.589 0.57156 8.0591-0.0804 19.416-6.4203 27.749-5.8022 7.6278-15.298 11.487-28.241 11.487"/>
      <path d="m10.1 55.483-1.4031-0.0834c1.8755-31.621 30.391-33.589 30.679-33.605l0.0792 1.4034c-0.27636 0.0157-27.554 1.9342-29.355 32.285"/>
      <path d="m100.19 31.525c-0.19972-13.934-11.455-19.276-11.569-19.329l0.25249-0.54719c0.11683 0.0536 11.714 5.5439 11.919 19.868l-0.60171 9e-3"/>
      <path d="m65.376 15.866-1.2599-0.62318c0.2211-0.44607 5.497-10.943 13.266-11.68 3.9494-0.37195 7.7556 1.8332 11.336 6.5596l-1.1192 0.84891c-3.2686-4.3118-6.659-6.329-10.083-6.009-6.9981 0.66439-12.088 10.802-12.14 10.904"/>
      <path d="m75.59 102.88c-9.42 0-17.645-2.5943-24.567-7.7662-20.121-15.034-22.289-47.145-22.308-47.468l1.4031-0.0845c0.0188 0.31605 2.1518 31.791 21.751 46.431 9.8044 7.3226 22.376 9.279 37.36 5.8211l0.31655 1.369c-4.9028 1.132-9.5595 1.6978-13.955 1.6978"/>
      <path d="m81.238 86.284-0.46604-0.88823c30.932-16.238 30.437-33.411 30.427-33.583l1.0037-0.0506c0.0364 0.7272 0.53136 17.989-30.965 34.522"/>
      <path d="m101.15 31.761-1.3202-0.48187c0.0691-0.18942 6.8411-19.03-0.39193-24.859-5.1026-4.1119-16.492-0.78071-32.941 9.6328l-0.75119-1.1875c17.248-10.919 28.881-14.128 34.575-9.5386 8.0119 6.458 1.1268 25.622 0.82907 26.435"/>
      <path d="m112.2 51.789-1.005-2e-3c0-0.22824-0.11808-22.965-14.156-33.346-7.9742-5.8986-18.918-6.7583-32.527-2.561l-0.29519-0.9593c13.933-4.2984 25.179-3.3842 33.423 2.7151 14.446 10.687 14.56 33.92 14.56 34.154"/>
      <path d="m52.663 101.21c-5.2583 0-9.9941-1.8524-14.127-5.535-18.274-16.279-7.8159-40.708-7.7091-40.954l1.2876 0.56578c-0.10426 0.23553-10.145 23.747 7.3561 39.338 4.9619 4.4197 10.858 6.0218 17.522 4.7573l0.26255 1.3813c-1.5715 0.29785-3.104 0.44652-4.5926 0.44652"/>
      <path d="m41.517 75.34c-6.6175 9.8e-4 -11.397-1.7184-14.268-5.1469-5.904-7.0492-1.5212-18.572-1.3315-19.059l0.93584 0.36416c-0.044 0.11381-4.3564 11.462 1.1682 18.053 3.9908 4.7611 12.081 5.9839 24.041 3.6237l0.19344 0.98634c-3.9934 0.78612-7.576 1.1787-10.739 1.1787"/>
    </g>
    <path d="m117.54 39.24c-3.0261-0.0227-5.4606-2.4932-5.4392-5.5194 0.0227-3.026 2.4935-5.4608 5.5196-5.4392 3.0261 0.022 5.4606 2.4931 5.4392 5.5192-0.0226 3.0261-2.4935 5.4615-5.5196 5.4393" fill="#f68712"/>
    <path d="m38.523 11.845c-3.0261-0.0221-5.4618-2.4932-5.4392-5.5189 0.0214-3.0261 2.4922-5.4613 5.5184-5.4393 3.0261 0.0221 5.4618 2.4932 5.4392 5.5194-0.0214 3.0256-2.4922 5.4609-5.5184 5.4388" fill="#36ab9c"/>
    <path d="m64.681 24.743c-5.0749-0.0368-9.1587-4.1808-9.1223-9.2555 0.0377-5.0748 4.1818-9.1587 9.2555-9.1214 5.0749 0.0368 9.1587 4.1807 9.1223 9.2553-0.0377 5.0748-4.1818 9.1587-9.2555 9.1216" fill="#5e2590"/>
    <path d="m29.332 59.22c-6.414-0.0471-11.574-5.2837-11.528-11.698 0.0465-6.4133 5.2835-11.574 11.697-11.527 6.4128 0.0466 11.574 5.2837 11.528 11.697-0.0477 6.4134-5.2847 11.574-11.697 11.528" fill="#5e2590"/>
    <path d="m9.777 65.291c-5.4392-0.0397-9.817-4.4814-9.7768-9.9212 0.0389-5.4398 4.482-9.8172 9.9212-9.778 5.4392 0.0398 9.817 4.482 9.778 9.9219-0.0402 5.4397-4.482 9.8172-9.9225 9.7774" fill="#27963c"/>
    <path d="m90.162 104.69c-2.3101-0.0167-4.1692-1.9034-4.1516-4.2136 0.0163-2.3097 1.9031-4.1689 4.2132-4.1522 2.3101 0.0172 4.1692 1.9034 4.1516 4.2136-0.0164 2.3102-1.9031 4.1694-4.2132 4.1522" fill="#f68712"/>
    <path d="m56.122 104.98c-3.0311-0.0221-5.4694-2.4971-5.4468-5.5276 0.0214-3.0305 2.496-5.4693 5.5272-5.4472 3.0299 0.0221 5.4694 2.4966 5.4468 5.5272-0.0214 3.031-2.496 5.4697-5.5272 5.4477" fill="#5e2590"/>
    <path d="m39.382 26.96c-2.4659-0.0182-4.4494-2.0315-4.4318-4.4962 0.0188-2.4652 2.0312-4.4491 4.4971-4.4314 2.4646 0.0181 4.4481 2.031 4.4305 4.4962-0.0176 2.4652-2.0312 4.449-4.4958 4.4314" fill="#3871c1"/>
    <path d="m99.905 41.027c-4.835-0.0353-8.7254-3.983-8.6902-8.8177 0.0351-4.8348 3.9833-8.7255 8.8183-8.6902 4.8338 0.0354 8.7254 3.9834 8.6889 8.8183-0.0351 4.8342-3.9821 8.725-8.8171 8.6896" fill="#f68712"/>
    <path d="m64.708 20.863c-2.9319-0.0211-5.291-2.4158-5.2696-5.3476 0.0214-2.9318 2.4156-5.2911 5.3475-5.27 2.9319 0.0216 5.291 2.4157 5.2696 5.3476-0.0214 2.9319-2.4156 5.2916-5.3475 5.27" fill="#00adef"/>
    <path d="m56.137 69.915c-10.272-0.075-18.537-8.4624-18.463-18.734 0.0753-10.272 8.4628-18.537 18.735-18.462 10.27 0.075 18.537 8.4624 18.462 18.734-0.0753 10.271-8.4628 18.537-18.733 18.462" fill="#27963c"/>
    <path d="m56.194 62.062c-5.9342-0.0432-10.71-4.8893-10.666-10.824 0.0427-5.9344 4.889-10.71 10.823-10.667 5.9342 0.0437 10.71 4.8893 10.666 10.824-0.0427 5.9345-4.889 10.71-10.823 10.667" fill="#00adef"/>
    <path d="m29.381 52.419c-2.6568-0.0192-4.7948-2.189-4.776-4.846 0.0201-2.6572 2.1895-4.7956 4.8463-4.7765 2.6568 0.0197 4.796 2.1895 4.776 4.8466-0.0188 2.6572-2.1895 4.7951-4.8463 4.776" fill="#f68712"/>
    <path d="m102.54 73.668c-3.4356-0.025-6.2005-2.8298-6.1753-6.2652 0.0251-3.4349 2.8302-6.1994 6.2658-6.1738 3.4344 0.025 6.1992 2.8298 6.1741 6.2647-0.0251 3.4352-2.8302 6.1993-6.2645 6.1743" fill="#5e2590"/>
    <path d="m49.791 98.67c-5.7721-0.0417-10.419-4.7553-10.376-10.528 0.0427-5.7725 4.7559-10.418 10.528-10.376 5.7734 0.0422 10.419 4.7557 10.376 10.528-0.0415 5.7729-4.7559 10.418-10.528 10.376" fill="#f68712"/>
    <path d="m34.178 94.403c-3.7409-0.0275-6.7519-3.0821-6.7243-6.8231 0.0277-3.741 3.0826-6.7514 6.8235-6.7244 3.7409 0.0275 6.7507 3.0825 6.7243 6.823-0.0277 3.741-3.0826 6.7514-6.8235 6.7245" fill="#36ab9c"/>
    <path d="m80.938 95.028c-5.0737-0.0373-9.1575-4.1807-9.121-9.255 0.0377-5.0742 4.1805-9.1572 9.2555-9.1204 5.0737 0.0373 9.1575 4.1807 9.1198 9.255-0.0364 5.0737-4.1805 9.1572-9.2542 9.1204" fill="#36ab9c"/>
    <path d="m111.63 61.715c-5.4819-0.0402-9.8936-4.5168-9.8534-9.9994 0.0402-5.4819 4.5159-9.8937 9.9991-9.854 5.4819 0.0402 9.8936 4.5168 9.8534 9.9994-0.0402 5.4819-4.5159 9.8942-9.9991 9.854" fill="#5e2590"/>
    <path d="m52.129 76.224c-2.2712-0.0167-4.1001-1.8721-4.0838-4.1435 0.0176-2.2719 1.8717-4.0996 4.1441-4.0834 2.2712 0.0166 4.1001 1.8719 4.0838 4.1434-0.0176 2.2719-1.8717 4.1003-4.1441 4.0836" fill="#3871c1"/>
    <path d="m102.56 71.834c-2.4219-0.0176-4.3702-1.995-4.3526-4.4172 0.0176-2.422 1.9948-4.3711 4.4167-4.3534 2.4219 0.0178 4.3715 1.9952 4.3539 4.4172-0.0176 2.422-1.9961 4.3711-4.418 4.3534" fill="#27963c"/>
    <path d="m80.979 89.412c-1.9734-0.0142-3.5612-1.6251-3.5474-3.5983 0.0151-1.9731 1.6255-3.5609 3.5989-3.5467 1.9734 0.0147 3.5612 1.6257 3.5462 3.5988-0.0138 1.9731-1.6255 3.5609-3.5977 3.5462" fill="#f68712"/>
    <path d="m111.62 55.442c-2.0639-0.0152-3.7245-1.7002-3.7095-3.7645 0.0151-2.0639 1.7008-3.7249 3.7647-3.7097 2.0639 0.0152 3.7246 1.7002 3.7095 3.7646-0.0151 2.0639-1.7009 3.7248-3.7648 3.7096" fill="#fff"/>
    <path d="m49.402 92.12c-2.0639-0.0147-3.7245-1.7002-3.7095-3.7641 0.0151-2.0644 1.7008-3.7248 3.7647-3.7101 2.0639 0.0152 3.7245 1.7007 3.7095 3.7645-0.0151 2.0639-1.7008 3.7249-3.7647 3.7097" fill="#fff"/>
    <path d="m88.698 18.033c-4.1316-0.0305-7.4566-3.4045-7.4265-7.5366 0.0301-4.1315 3.4042-7.457 7.5358-7.4266 4.1315 0.03 7.4566 3.404 7.4265 7.5361-0.0301 4.132-3.4042 7.457-7.5358 7.4271" fill="#3871c1"/>
  </g>
</svg>
